<svg width="196" height="196" viewBox="0 0 196 196" fill="none" xmlns="http://www.w3.org/2000/svg">
<g clip-path="url(#clip0_9_888)">
<path d="M165.957 92.2545V135.805C165.957 136.378 165.64 136.915 165.137 137.211L127.115 158.986C127.115 158.986 126.966 159.06 126.91 159.097C126.239 159.356 125.698 159.097 125.474 158.986C125.269 158.857 124.784 158.524 124.672 157.876V113.882C124.71 113.419 124.952 112.994 125.325 112.716L129.912 110.089L163.757 90.719C163.944 90.645 164.13 90.6265 164.298 90.6265C164.671 90.6265 164.988 90.756 165.137 90.8485C165.379 90.978 165.957 91.4035 165.957 92.2545Z" fill="#5129F0"/>
<path d="M165.958 38.9803V80.2169L163.474 78.8115L127.137 58.1932L163.474 37.5749C163.756 37.4085 164.038 37.353 164.283 37.353C164.659 37.353 164.979 37.4825 165.13 37.5749C165.374 37.7044 165.958 38.1297 165.958 38.9803Z" fill="#5129F0"/>
<path d="M161.644 85.1209C161.644 85.3968 161.569 86.096 160.822 86.5192L126.88 105.801L124.712 107.034L122.712 108.175C122.712 108.175 122.694 108.175 122.694 108.193C122.189 108.451 121.572 108.451 121.086 108.175H121.068L119.105 107.052L116.918 105.801H116.9L82.9771 86.5192C82.9771 86.5192 82.9585 86.5192 82.9585 86.5008C82.2295 86.0776 82.1548 85.3968 82.1548 85.1209C82.1548 84.8633 82.2295 84.2009 82.8837 83.7961L116.638 64.606C116.638 64.606 116.788 64.5324 116.844 64.4956L119.087 63.2077L121.086 62.067C121.591 61.7726 122.226 61.7726 122.731 62.067L124.694 63.1893H124.712L160.822 83.7225C161.569 84.1457 161.644 84.8449 161.644 85.1209Z" fill="white"/>
<path d="M161.644 31.2348C161.644 31.5108 161.569 32.21 160.822 32.6331L122.712 54.2885C122.712 54.2885 122.694 54.2885 122.694 54.3069C122.226 54.546 121.666 54.5644 121.199 54.3436C121.161 54.3252 121.124 54.3069 121.086 54.2885H121.068L116.638 51.7494L82.7903 32.5044C82.7903 32.5044 82.7529 32.5044 82.7342 32.4676C82.2109 32.0444 82.1548 31.474 82.1548 31.2348C82.1548 30.9589 82.2295 30.2597 82.9771 29.8365L121.086 8.18123C121.591 7.88685 122.226 7.88685 122.731 8.18123L160.822 29.8365C161.569 30.2597 161.644 30.9589 161.644 31.2348Z" fill="white"/>
<path d="M114.813 58.168C114.813 58.4256 114.738 59.0882 114.084 59.4932C114.047 59.53 114.028 59.5484 113.991 59.5668L80.3299 78.6902L77.8628 80.089L75.8816 81.2301C75.8816 81.2301 75.8629 81.2301 75.8629 81.2485C75.8256 81.2669 75.7882 81.2854 75.7321 81.3038C75.2649 81.5062 74.7041 81.4878 74.2556 81.2301H74.2369L72.2557 80.1074L36.1463 59.5852C35.3987 59.1619 35.324 58.4624 35.324 58.1864C35.324 57.9103 35.3987 57.2109 36.1463 56.7875L72.2557 36.2653L74.2556 35.1242C74.7602 34.8297 75.3957 34.8297 75.9003 35.1242L113.991 56.7875C113.991 56.7875 114.122 56.8612 114.178 56.9164L114.234 56.9532C114.757 57.3765 114.813 57.9471 114.813 58.1864V58.168Z" fill="white"/>
<path d="M69.2146 85.1456L33.4538 105.755L31.0105 107.16V65.9225C31.0105 65.0722 31.5843 64.6471 31.8249 64.5177C31.973 64.4253 32.2692 64.2959 32.6579 64.2959C32.8985 64.2959 33.1576 64.3514 33.4538 64.5177L69.2146 85.1456Z" fill="#5129F0"/>
<path d="M114.813 111.757C114.813 112.037 114.738 112.745 113.991 113.174L80.3299 132.561C80.3299 132.561 80.1804 132.636 80.1243 132.673L77.8628 133.978L75.8816 135.115C75.8816 135.115 75.8629 135.115 75.8629 135.134C75.3583 135.395 74.7415 135.395 74.2556 135.115H74.2369L72.2557 133.978L69.9942 132.673C69.9942 132.673 69.8634 132.599 69.7886 132.561L36.1463 113.174C35.3987 112.745 35.324 112.037 35.324 111.757C35.324 111.477 35.3987 110.769 36.1463 110.34L72.2557 89.5545L74.2556 88.3987C74.7041 88.1377 75.2649 88.1004 75.7321 88.3241L75.8816 88.4173L77.8628 89.5545L80.0869 90.8408H80.1056L113.972 110.34H114.01L114.084 110.415C114.738 110.825 114.813 111.496 114.813 111.757Z" fill="white"/>
<path d="M72.2956 140.973V184.523C72.2956 185.356 71.7362 185.781 71.4751 185.929C71.2514 186.04 70.7106 186.299 70.0393 186.04C69.9647 186.003 69.9088 185.966 69.8342 185.929L31.831 164.154C31.3275 163.858 31.0105 163.321 31.0105 162.748V119.197C31.0105 118.346 31.5886 117.921 31.831 117.791C31.9802 117.699 32.2785 117.569 32.6701 117.569C32.8566 117.569 33.0431 117.606 33.2482 117.68L67.0371 137.013L71.5497 139.604C71.9973 139.9 72.2956 140.399 72.2956 140.973Z" fill="#5129F0"/>
<path d="M119.127 119.197V162.748C119.127 163.321 118.81 163.858 118.307 164.154L116.331 165.282L80.3019 185.929C80.3019 185.929 80.1528 186.003 80.0969 186.04C79.4259 186.299 78.8853 186.04 78.6617 185.929C78.4194 185.781 77.8416 185.356 77.8416 184.523V140.973C77.8416 140.399 78.1398 139.9 78.6057 139.604L78.6617 139.567L80.656 138.438L83.0977 137.013L116.871 117.68C117.076 117.606 117.281 117.569 117.468 117.569C117.841 117.569 118.157 117.699 118.307 117.791C118.512 117.902 118.996 118.235 119.108 118.901C119.127 118.994 119.127 119.086 119.127 119.197Z" fill="#5129F0"/>
<path d="M168.383 25.7039L125.761 1.22685C122.924 -0.40374 119.406 -0.40374 116.551 1.22685L82.531 20.7572H82.5125L74.537 25.3375L73.6161 25.8688L70.9084 27.4261L68.8639 28.5987L64.2038 31.2736L27.6048 52.288C24.7682 53.9002 23 56.9416 23 60.2211V162.38C23 165.623 24.7682 168.664 27.6048 170.313L70.2453 194.79C71.6268 195.578 73.2108 195.999 74.8317 195.999C76.4526 195.999 78.0551 195.578 79.4549 194.79L168.051 143.912L168.383 143.711C171.22 142.062 172.988 139.02 172.988 135.778V33.637C172.988 30.3575 171.22 27.3162 168.383 25.7039ZM152.285 29.1483C154.127 30.211 154.127 32.8492 152.285 33.8935L121.211 51.72H121.082L90.046 33.8752C88.2041 32.8126 88.2041 30.1743 90.046 29.13L119.775 12.073C120.622 11.5783 121.672 11.5783 122.538 12.073L152.285 29.1483ZM74.9054 131.509H74.758L43.7216 113.682C41.8797 112.62 41.8797 109.981 43.7216 108.937L73.4503 91.8617C74.2976 91.3671 75.3475 91.3671 76.2132 91.8617L105.96 108.937C107.802 110 107.802 112.62 105.96 113.682L78.7919 129.292C78.6629 129.347 78.534 129.42 78.4235 129.493L74.9054 131.509ZM121.193 104.906H121.082L116.975 102.543L90.0644 87.0799C88.2225 86.0173 88.2225 83.3974 90.0644 82.3347L117.214 66.7434C117.399 66.6518 117.583 66.5602 117.583 66.5419L119.793 65.2594C120.64 64.7647 121.69 64.7647 122.556 65.2594L152.303 82.3347C154.145 83.3974 154.145 86.0356 152.303 87.0799L121.23 104.906H121.193ZM132.226 58.1141L157.81 43.4205C159.652 42.3579 161.936 43.677 161.936 45.8023V75.1895L132.226 58.1324V58.1141ZM76.2316 38.657L105.979 55.7324C107.821 56.795 107.821 59.4332 105.979 60.4776L78.6629 76.1422L74.9054 78.3041H74.7765L43.7401 60.4776C41.8981 59.4149 41.8981 56.7767 43.7401 55.7324L73.4871 38.657C74.3344 38.1624 75.3843 38.1624 76.25 38.657H76.2316ZM63.7802 84.7165L34.0515 101.774V72.368C34.0515 70.2611 36.3539 68.9419 38.1774 69.9863L63.7802 84.6982V84.7165ZM38.1774 123.191L67.9245 140.248C68.7718 140.743 69.306 141.64 69.306 142.63V176.799C69.306 178.906 67.0035 180.225 65.18 179.181L35.433 162.105C34.5857 161.61 34.0515 160.713 34.0515 159.723V125.554C34.0515 123.447 36.3539 122.128 38.1774 123.173V123.191ZM81.7205 140.266L111.486 123.191C113.328 122.128 115.612 123.447 115.612 125.573V159.742C115.612 160.713 115.078 161.629 114.23 162.123L84.465 179.199C82.6231 180.261 80.3391 178.942 80.3391 176.817V142.648C80.3391 141.677 80.8732 140.761 81.7205 140.266ZM128.045 113.664L157.792 96.5886C159.634 95.526 161.918 96.8451 161.918 98.9704V133.121C161.918 134.092 161.384 135.008 160.536 135.503L130.789 152.578C128.947 153.641 126.663 152.322 126.663 150.196V116.046C126.663 115.075 127.198 114.159 128.045 113.664Z" fill="#0B0E1B"/>
</g>
<defs>
<clipPath id="clip0_9_888">
<rect width="149.988" height="196" fill="white" transform="translate(23)"/>
</clipPath>
</defs>
</svg>
